<svg width="25" height="25" viewBox="0 0 25 25" fill="none" xmlns="http://www.w3.org/2000/svg">
<path d="M3.72905 10.6042L11.7603 2.39583C11.8571 2.2982 11.9723 2.2207 12.0993 2.16782C12.2262 2.11493 12.3624 2.08771 12.4999 2.08771C12.6374 2.08771 12.7735 2.11493 12.9005 2.16782C13.0274 2.2207 13.1426 2.2982 13.2395 2.39583L21.2707 10.6146C21.465 10.8105 21.6185 11.043 21.7222 11.2988C21.826 11.5545 21.8778 11.8282 21.8749 12.1042V20.8333C21.8757 21.3666 21.672 21.8798 21.3057 22.2674C20.9395 22.655 20.4386 22.8873 19.9061 22.9167H5.09363C4.56119 22.8873 4.06027 22.655 3.69402 22.2674C3.32777 21.8798 3.12407 21.3666 3.12488 20.8333V12.1042C3.12406 11.5447 3.3407 11.0069 3.72905 10.6042ZM14.5832 20.8333V14.5833H10.4165V20.8333H14.5832ZM5.20822 20.8333H8.33321V13.5417C8.33321 13.2654 8.44296 13.0004 8.63831 12.8051C8.83366 12.6097 9.09861 12.5 9.37488 12.5H15.6249C15.9011 12.5 16.1661 12.6097 16.3614 12.8051C16.5568 13.0004 16.6665 13.2654 16.6665 13.5417V20.8333H19.7915V12.0625L12.4999 4.61458L5.20822 12.1042V20.8333Z" fill="#88658C"/>
</svg>
