<svg width="95" height="81" viewBox="0 0 95 81" fill="none" xmlns="http://www.w3.org/2000/svg">
<g clip-path="url(#clip0_357_1884)">
<path d="M24.1037 0.00588006C25.4724 -0.212892 33.7973 5.73797 35.7564 8.3226C36.7891 9.71787 37.3883 9.7707 42.4421 9.03717C46.404 8.40389 49.282 8.38966 52.574 9.12658L57.1593 10.1026L60.0575 7.41027C63.8989 3.67556 70.042 0.0187506 71.1763 0.654748C72.6446 1.53458 72.7443 10.5835 71.4281 18.1497C70.8364 21.8851 70.3213 26.5742 70.3537 28.6495C70.4903 32.7885 69.2482 38.4854 67.6958 40.814C66.7493 42.3027 66.7721 42.4477 68.301 43.2435C69.1849 43.6966 71.552 44.6557 73.6457 45.287C75.6674 45.9297 77.3518 46.775 77.4204 47.2099C77.6951 48.9492 75.4883 49.0047 70.3941 47.1442C65.7172 45.5884 64.5795 45.3987 63.7575 46.2731C62.9469 47.22 63.5656 47.8641 67.7167 50.7671C70.3766 52.6453 72.6763 54.5811 72.7678 55.1608C73.0883 57.1901 70.217 56.3116 65.3981 52.921L60.4008 49.3359L55.8788 51.099C49.1204 53.6653 42.0483 53.3097 35.7658 50.0045C33.6755 48.9269 33.6755 48.9268 28.4688 52.434C22.7923 56.2391 21.3254 56.7708 21.0507 55.0315C20.9477 54.3792 22.8192 52.6683 25.953 50.5328C28.8216 48.5882 30.8258 46.7818 30.5296 46.309C30.0812 45.3405 26.2519 45.8783 20.8312 47.5621C17.4537 48.6221 17.0821 48.6072 16.8761 47.3027C16.6929 46.1431 17.4281 45.6541 21.3476 44.2845C23.9442 43.4237 26.2412 42.5364 26.4344 42.3569C26.6996 42.1659 26.1402 40.0263 25.2468 37.6428C24.0835 34.4852 23.6681 32.3225 23.7947 29.8503C23.9408 27.9694 23.5786 21.9346 23.0919 16.514C22.5331 11.105 22.2658 5.20358 22.4234 3.39516C22.6563 1.12887 23.1673 0.155569 24.1037 0.00588566L24.1037 0.00588006ZM25.2717 4.12868C24.6362 5.71631 26.0284 18.2737 26.8208 18.147C27.181 18.0895 28.0144 17.2875 28.5483 16.4592C29.1427 15.5468 30.6164 14.1224 31.8821 13.2514C33.1477 12.3804 34.0794 11.2655 33.9879 10.6858C33.7361 9.09136 25.7713 3.08292 25.2717 4.12868ZM69.1096 4.40299C68.6201 4.10972 64.2321 7.18878 61.997 9.40359L59.8946 11.5229L62.8507 13.8739C64.4597 15.177 66.2814 16.892 66.8624 17.765C67.9786 19.2212 68.0506 19.2097 68.6208 16.7409C68.9911 15.3443 69.2799 12.0289 69.3115 9.42325C69.3317 6.74515 69.2765 4.52492 69.1096 4.40299ZM32.9767 15.9742C18.5234 29.2069 30.8049 52.7293 50.4588 49.5134C61.6241 47.7287 68.8309 38.1806 67.1862 27.2982C66.068 19.7495 61.8126 14.7828 54.0975 12.2266C47.7215 10.1994 37.2994 12.014 32.9767 15.9742Z" fill="#88658C"/>
<path d="M36.2381 28.6786C38.3614 28.5621 38.6953 28.8059 38.9814 30.6177C39.3934 33.2267 37.6774 34.9871 35.6934 34.1154C34.1154 33.476 33.253 31.7563 33.6381 29.9858C33.8118 29.215 34.6304 28.787 36.238 28.6786H36.2381Z" fill="#88658C"/>
<path d="M59.3305 28.9996C62.1573 30.9997 60.8452 34.8502 57.3943 34.5102C54.6981 34.2725 53.7098 31.7556 55.4635 29.7663C57.1566 27.861 57.6609 27.7804 59.3305 28.9996Z" fill="#88658C"/>
<path d="M46.7676 39.7012C48.3866 39.6653 49.9566 39.7858 50.207 39.9687C51.1253 40.6392 50.1148 42.6583 48.3826 43.381C46.3017 44.2337 44.3063 43.2896 43.9744 41.1879C43.7798 39.9558 44.1171 39.7533 46.7676 39.7012Z" fill="#88658C"/>
<path d="M1.46575 63.0443C2.25813 62.9176 4.06504 65.0065 6.60172 68.9105C8.81929 72.1968 10.8733 74.9149 11.1614 74.8688C11.4495 74.8228 11.7087 72.2551 11.7437 69.2031C11.7235 63.9309 12.2412 62.0649 13.4099 62.9183C13.7439 63.1622 14.0017 67.1332 14.0024 71.8142C14.0159 77.9791 13.7338 80.4018 13.0134 80.5169C12.4372 80.6091 10.0116 77.8761 7.54354 74.4069C5.07553 70.9377 2.87749 68.2427 2.61224 68.4337C2.43047 68.6857 2.28438 70.5666 2.32814 72.7143C2.51192 78.5548 2.22514 80.0124 1.14462 80.1851C0.568352 80.2772 0.101816 80.1289 0.0674767 79.9114C-0.0698576 79.0418 0.0230446 65.1325 0.162399 64.1443C0.309835 63.6749 0.889479 63.1364 1.46575 63.0443V63.0443Z" fill="#88658C"/>
<path d="M18.4918 63.2949C19.0681 63.2028 20.4381 64.3956 21.5657 65.9242C22.7048 67.5254 23.7375 68.9207 23.9045 69.0426C24.1549 69.2255 25.3519 67.9196 26.6243 66.1559C28.3322 63.8767 29.4424 62.9563 30.364 63.1804C31.5132 63.4426 31.256 64.1524 28.5901 67.8478C26.905 70.2719 25.5047 73.0963 25.4603 74.2179C25.4273 75.412 25.3304 77.1365 25.2745 78.1856C25.2186 79.2348 24.6962 80.1356 24.1199 80.2277C22.8233 80.435 22.9525 80.7858 23.0845 76.0094C23.1835 72.4271 22.9364 71.7979 20.3735 68.1953C18.7712 65.9994 17.5029 64.0474 17.4685 63.83C17.4342 63.6126 17.9155 63.387 18.4918 63.2949H18.4918Z" fill="#88658C"/>
<path d="M37.9217 64.2757C38.9133 66.3462 43.403 78.4085 43.5747 79.4956C43.7006 80.2928 43.3862 80.6402 42.6315 80.5379C42.0094 80.3402 41.4137 79.841 41.3335 79.3337C41.1161 77.9567 34.5563 78.0393 33.9585 79.398C33.739 79.8789 32.9924 80.2955 32.3212 80.2541C31.4339 80.2474 31.8304 78.5494 34.3987 71.8975C36.1841 67.3026 37.7924 63.9248 37.9217 64.2757V64.2757ZM36.2238 73.1661C35.3884 75.8259 36.1363 76.8209 38.9457 76.3718C39.9541 76.2106 40.113 75.8137 39.5468 74.5668C39.1934 73.7316 38.7713 72.4617 38.6568 71.737C38.3478 69.7802 37.1313 70.4948 36.2238 73.1661Z" fill="#88658C"/>
<path d="M50.8549 63.3972C55.3977 63.6369 57.0639 65.3025 53.3182 65.9012C51.3012 66.2236 51.3127 66.2961 51.4062 72.9683C51.4217 77.2753 51.174 79.9155 50.56 80.2365C50.0181 80.5461 49.5253 80.6991 49.3583 80.5772C49.1914 80.4553 49.0675 77.8002 49.1025 74.7483C49.2923 67.0648 49.0486 65.9893 47.3117 65.7468C46.485 65.656 45.7223 65.0349 45.6307 64.4551C45.4361 63.2231 45.5802 63.2001 50.8549 63.3972V63.3972Z" fill="#88658C"/>
<path d="M60.8538 63.5821C65.6996 63.4019 66.1662 63.5503 66.395 64.9997C66.5095 65.7244 66.0396 66.0224 64.7578 65.8558C62.7442 65.7319 62.7442 65.7319 62.7226 74.9488C62.73 78.737 62.3908 80.7974 61.7424 80.901C61.2382 80.9816 60.7144 80.4709 60.6 79.7462C60.394 78.4417 60.3872 71.3841 60.5697 67.8627C60.6633 66.5846 60.2836 66.0509 58.7628 65.7739C57.6971 65.5727 56.7903 64.9746 56.7216 64.5398C56.63 63.96 57.8432 63.6918 60.8538 63.5821V63.5821Z" fill="#88658C"/>
<path d="M69.4018 63.9248L73.7205 63.6803C79.154 63.4805 80.2198 63.6817 80.4372 65.0586C80.586 66.0008 79.8771 66.1884 76.4948 66.2832C72.1647 66.4552 71.1643 67.1353 71.5878 69.8167C71.7251 70.6864 72.6696 71.0556 75.104 71.0379C77.6103 71.0088 78.4714 71.317 78.6202 72.2591C78.7804 73.2738 78.2991 73.4993 75.2279 73.693C71.8685 73.9328 71.7359 74.0283 71.6618 75.8977C71.5958 78.2859 71.5959 78.2859 76.0929 78.2358C79.6307 78.1904 81.0761 78.9253 80.1067 80.269C79.2584 81.4449 69.6799 81.1184 69.4853 79.8864C69.3938 79.3066 69.3863 75.5184 69.3938 71.3563L69.4018 63.9248Z" fill="#88658C"/>
<path d="M83.7197 63.8652L86.9694 63.8659C91.1669 63.7894 94.0691 65.3316 94.7463 67.7496C95.3664 69.8052 93.989 72.7746 92.2602 73.0509C91.0356 73.2467 91.0356 73.2467 93.4511 77.3187C95.3576 80.5061 95.392 80.7235 94.1674 80.9193C93.2309 81.069 92.2669 80.1085 90.9905 77.6377C89.2394 74.4997 87.38 73.0137 86.6038 74.178C86.422 74.4299 86.3022 76.0094 86.3379 77.6384C86.4092 80.8963 84.636 82.2942 84.1667 79.3228C83.5258 75.2644 84.0308 71.9144 85.2702 71.3448C86.1723 70.9777 86.3803 70.4243 85.9663 69.6732C85.5751 69.067 84.9632 67.5301 84.5296 66.1877L83.7197 63.8652ZM88.6773 69.537C89.8393 71.2831 90.2338 71.443 91.9202 70.4304C93.6066 69.4178 92.7967 67.0953 90.5818 66.632C86.9902 65.8687 86.6381 66.4451 88.6773 69.537Z" fill="#88658C"/>
</g>
<defs>
<clipPath id="clip0_357_1884">
<rect width="95" height="81" fill="white"/>
</clipPath>
</defs>
</svg>
