<svg width="24" height="24" viewBox="0 0 24 24" fill="none" xmlns="http://www.w3.org/2000/svg">
<path d="M6 8H4C3.73478 8 3.48043 8.10536 3.29289 8.29289C3.10536 8.48043 3 8.73478 3 9V21C3 21.2652 3.10536 21.5196 3.29289 21.7071C3.48043 21.8946 3.73478 22 4 22H20C20.2652 22 20.5196 21.8946 20.7071 21.7071C20.8946 21.5196 21 21.2652 21 21V9C21 8.73478 20.8946 8.48043 20.7071 8.29289C20.5196 8.10536 20.2652 8 20 8H18V7C18 5.4087 17.3679 3.88258 16.2426 2.75736C15.1174 1.63214 13.5913 1 12 1C10.4087 1 8.88258 1.63214 7.75736 2.75736C6.63214 3.88258 6 5.4087 6 7V8ZM19 10V20H5V10H19ZM13 14H11V16H13V14ZM17 14H15V16H17V14ZM9 14H7V16H9V14ZM8 8V7C8 5.93913 8.42143 4.92172 9.17157 4.17157C9.92172 3.42143 10.9391 3 12 3C13.0609 3 14.0783 3.42143 14.8284 4.17157C15.5786 4.92172 16 5.93913 16 7V8H8Z" fill="#88658C"/>
</svg>
