<svg width="909" height="605" viewBox="0 0 909 605" fill="none" xmlns="http://www.w3.org/2000/svg">
<path d="M903.156 44.0938V336.906C903.156 347.261 899.043 357.191 891.721 364.513C884.399 371.835 874.469 375.948 864.115 375.948H317.531L219.927 493.073V375.948H180.885C170.531 375.948 160.6 371.835 153.279 364.513C145.957 357.191 141.844 347.261 141.844 336.906V44.0938C141.844 33.7393 145.957 23.8089 153.279 16.4871C160.6 9.16541 170.531 5.05209 180.885 5.05209H864.115C874.469 5.05209 884.399 9.16541 891.721 16.4871C899.043 23.8089 903.156 33.7393 903.156 44.0938V44.0938Z" stroke="#88658C" stroke-width="10" stroke-linecap="round" stroke-linejoin="round"/>
<path d="M7.57127 526.569C6.90835 522.703 6.67997 518.087 7.30483 512.698L9.15085 496.677L10.3467 497.984C10.5809 494.812 11.127 491.67 11.977 488.605C8.63068 468.99 8.96054 443.485 13.0681 412.305L13.5851 408.344L17.5119 408.864C40.1877 411.906 61.5788 421.631 77.7553 432.691C85.0887 431.105 92.9867 430.261 101.5 430.261C110.007 430.261 117.911 431.105 125.245 432.691C141.421 421.634 162.806 411.906 185.482 408.864L189.412 408.344L189.935 412.309C194.043 443.488 194.369 468.993 191.026 488.608C191.873 491.674 192.419 494.815 192.657 497.987L193.849 496.68L195.695 512.698C196.317 518.087 196.088 522.703 195.426 526.569L196.656 526.303V535.473C196.656 552.756 184.356 569.224 162.019 581.829C143.635 592.208 120.446 598.656 101.5 598.656C91.5371 598.656 80.4165 596.836 69.426 593.638C65.2849 596.889 60.1728 598.656 54.9083 598.656C42.0971 598.656 31.6648 588.398 31.1764 575.562C15.0918 563.984 6.34375 550.025 6.34375 535.473V526.303L7.57127 526.569ZM20.4142 417.406C17.8481 438.264 17.1059 456.613 18.0924 472.041C18.1844 469.856 18.5618 467.674 19.3992 465.634L18.0575 465.438L23.3926 456.22C22.3205 449.968 21.5148 439.098 25.0832 426.173C37.4313 431.308 46.9691 440.253 50.5375 443.91C55.6601 440.453 61.3282 437.658 67.5007 435.511C54.1249 427.324 37.7643 420.368 20.4142 417.406V417.406ZM182.586 417.406C165.232 420.368 148.869 427.324 135.493 435.508C141.669 437.658 147.334 440.453 152.456 443.907C156.028 440.253 165.566 431.305 177.914 426.17C181.479 439.092 180.673 449.959 179.601 456.217L184.939 465.438L183.601 465.637C184.438 467.677 184.819 469.856 184.908 472.045C185.894 456.617 185.149 438.267 182.586 417.406V417.406ZM31.8361 566.788C33.8058 555.011 39.9466 541.623 49.2307 527.549C47.487 527.306 45.7713 526.893 44.1081 526.315C42.8076 525.849 41.5262 525.256 40.286 524.495C39.6611 524.101 39.0648 523.664 38.459 523.096C38.2972 522.944 38.1672 522.807 37.9769 522.592L37.6724 522.198L37.4694 521.875L36.9809 520.926C35.7724 518.452 34.8811 515.934 34.1865 513.317C32.8733 508.096 32.5149 502.46 33.901 496.982C35.4616 491.463 38.6334 486.81 42.76 483.083C46.893 479.435 52.6531 476.98 58.3657 477.659C59.7732 477.8 61.1624 478.086 62.5113 478.512C63.8207 478.91 65.0864 479.439 66.289 480.092C68.7069 481.389 70.8453 483.15 72.582 485.274C75.8481 489.45 77.7476 494.53 78.0218 499.824C76.7403 494.879 74.428 490.188 70.866 486.838C69.1641 485.151 67.1508 483.809 64.9378 482.889C63.8345 482.429 62.6951 482.061 61.5312 481.789C60.4128 481.53 59.2718 481.383 58.1246 481.348C53.5222 481.218 49.1419 483.181 45.767 486.423C42.4016 489.62 39.6199 493.81 38.5002 498.2C37.2854 502.663 37.5074 507.56 38.5668 512.267C39.0743 514.624 39.8134 516.984 40.7522 519.16L41.1107 519.927L41.1614 520.016C41.1678 520.013 41.1614 519.997 41.1551 519.994L41.3295 520.194C41.6941 520.555 42.0877 520.886 42.5063 521.183C43.4374 521.848 44.4356 522.414 45.4847 522.871C47.299 523.66 49.2529 524.184 51.2448 524.568C52.398 522.885 53.5749 521.218 54.7751 519.569C51.4496 518.1 48.7305 515.531 47.074 512.295C45.4175 509.059 44.9245 505.351 45.6776 501.795C46.4306 498.238 48.384 495.048 51.21 492.761C54.036 490.474 57.5626 489.228 61.1982 489.233C64.4061 489.238 67.537 490.216 70.1764 492.04C72.8158 493.863 74.8393 496.445 75.9791 499.443C75.2369 498.514 74.1838 497.924 73.0039 497.924C70.7614 497.924 68.947 500.024 68.947 502.615C68.947 505.206 70.7614 507.306 73.0039 507.306C74.907 507.306 76.4802 505.79 76.9243 503.754C76.9624 504.204 77.0544 504.632 77.0544 505.092C77.055 508.205 76.1396 511.249 74.4221 513.846C72.7046 516.442 70.2611 518.475 67.396 519.692C67.8934 518.562 68.1525 517.34 68.1572 516.105C68.1572 511.677 65.0583 508.09 61.2235 508.09C57.3951 508.09 54.2898 511.68 54.2898 516.105C54.2898 517.317 54.5626 518.44 54.9845 519.47C56.3713 521.373 57.7259 523.298 59.0476 525.246C59.3014 525.243 59.5551 525.262 59.8089 525.256C64.8331 525.237 69.8574 524.273 74.8753 523.178C70.3058 525.222 65.4911 526.665 60.5511 527.473C67.7195 538.299 72.9404 548.579 75.8903 558.056C92.882 550.323 112.817 550.406 129.752 558.316C133.996 560.362 128.705 571.48 124.48 569.418C113.15 564.14 96.2664 562.107 80.4705 569.45C79.7885 569.767 79.0717 569.722 78.3707 569.459C78.5705 571.223 78.6879 572.958 78.6879 574.642C78.6879 579.381 77.3113 583.787 74.9704 587.507C84.2006 589.915 93.3451 591.234 101.494 591.234C136.273 591.234 189.329 567.451 189.329 535.485L183.468 536.748C183.468 536.748 190.249 529.424 188.422 513.577L182.725 519.822C182.725 519.822 188.422 503.741 183.468 488.903L177.159 493.623C177.159 493.623 179.075 487.584 177.314 483.451L174.59 485.62C174.59 485.62 181.047 471.378 175.043 465.92C172.61 474.078 169.737 474.201 169.572 474.201H169.562C169.562 474.201 173.197 467.908 170.368 465.269C169.21 467.166 168.132 467.81 167.262 467.81C165.959 467.81 165.121 466.361 165.191 465.504C165.347 463.614 164.62 460.943 173.108 459.687C171.938 457.666 169.324 457.067 166.609 457.067C162.565 457.067 158.302 458.412 158.302 458.412C158.302 458.412 158.575 454.155 164.183 454.155L164.522 454.161C162.758 451.516 160.177 450.742 157.766 450.742C154.416 450.742 151.403 452.23 151.403 452.23L151.422 452.287C149.149 450.569 146.76 449.01 144.273 447.621C142.306 452.119 139.648 454.168 136.397 460.179C131.75 451.599 128.35 446.612 126.44 440.595C123.544 439.86 120.611 439.275 117.654 438.841C115.196 449.911 109.55 458.478 101.497 473.342C93.3229 458.256 87.7531 449.819 85.333 438.835C82.2594 439.282 79.3476 439.888 76.5437 440.595C74.6184 446.679 71.1896 451.71 66.5999 460.179C63.317 454.108 60.6589 452.074 58.7082 447.621C56.1993 449.052 53.7823 450.577 51.5588 452.287L51.5779 452.23C51.5779 452.23 48.5678 450.742 45.2151 450.742C42.8045 450.742 40.2225 451.516 38.4622 454.161L38.8016 454.155C44.4094 454.155 44.6822 458.412 44.6822 458.412C44.6822 458.412 40.4192 457.061 36.3751 457.067C33.6631 457.067 31.0463 457.666 29.8759 459.687C38.3638 460.943 37.6375 463.614 37.7929 465.504C37.8595 466.361 37.0253 467.81 35.7248 467.81C34.8526 467.81 33.7741 467.166 32.6164 465.269C29.7839 467.908 33.422 474.201 33.422 474.201H33.4157C33.2476 474.201 30.3739 474.078 27.9442 465.92C21.9335 471.378 28.3978 485.62 28.3978 485.62L25.6732 483.451C23.9064 487.584 25.8286 493.623 25.8286 493.623L19.5229 488.903C14.5652 503.741 20.2651 519.822 20.2651 519.822L14.5652 513.577C12.7382 529.424 19.5229 536.748 19.5229 536.748L13.6549 535.485C13.6613 547.297 20.9344 557.996 31.8361 566.788" fill="#88658C"/>
<path d="M102.442 521.735C104.795 521.735 112.693 521.963 115.266 524.964C117.093 527.102 115.681 532.399 110.806 536.97C107.732 539.856 104.795 540.766 102.442 540.766C100.082 540.766 97.1446 539.856 94.0711 536.97C89.2023 532.399 87.7844 527.102 89.6178 524.964C92.187 521.963 100.082 521.735 102.442 521.735V521.735ZM138.598 480.088C139.801 479.436 141.066 478.907 142.376 478.509C143.723 478.083 145.112 477.797 146.518 477.656C152.227 476.977 157.991 479.432 162.127 483.079C166.253 486.806 169.425 491.46 170.983 496.975C172.375 502.456 172.014 508.096 170.697 513.311C170.006 515.931 169.111 518.449 167.909 520.923L167.414 521.871L167.215 522.195L166.907 522.588C166.717 522.804 166.583 522.94 166.428 523.093C165.822 523.664 165.223 524.098 164.604 524.491C163.358 525.253 162.079 525.846 160.776 526.312C155.542 528.193 150.061 528.26 144.878 527.568C139.689 526.744 134.69 525.284 129.999 523.166C135.017 524.263 140.041 525.224 145.065 525.243C150.042 525.373 155.066 524.748 159.399 522.861C160.449 522.405 161.449 521.839 162.381 521.174C162.798 520.876 163.191 520.545 163.554 520.184L163.729 519.984C163.722 519.987 163.716 520.003 163.722 520.003C163.74 519.973 163.759 519.943 163.779 519.914L164.135 519.15C165.084 516.929 165.815 514.62 166.317 512.258C167.376 507.554 167.598 502.653 166.384 498.19C165.264 493.8 162.485 489.61 159.12 486.413C155.745 483.175 151.365 481.208 146.762 481.338C145.614 481.373 144.472 481.521 143.353 481.779C142.15 482.071 141.037 482.413 139.946 482.88C137.754 483.777 135.746 485.132 134.018 486.829C130.456 490.175 128.143 494.869 126.862 499.814C127.136 494.521 129.036 489.44 132.302 485.265C134.042 483.145 136.181 481.386 138.598 480.088" fill="#88658C"/>
<path d="M143.67 489.227C146.878 489.231 150.008 490.21 152.647 492.033C155.286 493.856 157.309 496.438 158.448 499.437C157.709 498.507 156.659 497.918 155.479 497.918C153.236 497.918 151.422 500.017 151.422 502.609C151.422 505.2 153.236 507.3 155.479 507.3C157.376 507.3 158.955 505.784 159.396 503.747C159.434 504.198 159.529 504.626 159.529 505.086C159.529 508.199 158.613 511.243 156.896 513.839C155.179 516.435 152.736 518.468 149.871 519.686C150.368 518.555 150.627 517.334 150.632 516.099C150.632 511.671 147.53 508.083 143.698 508.083C139.87 508.083 136.765 511.674 136.765 516.099C136.765 517.406 137.06 518.623 137.539 519.715C134.159 518.299 131.373 515.757 129.655 512.52C127.937 509.283 127.394 505.552 128.116 501.959C128.839 498.367 130.783 495.135 133.618 492.814C136.454 490.493 140.006 489.225 143.67 489.227" fill="#88658C"/>
</svg>
