<svg width="95" height="81" viewBox="0 0 95 81" fill="none" xmlns="http://www.w3.org/2000/svg">
<g clip-path="url(#clip0_149_47)">
<path d="M24.1035 0.00587243C25.4722 -0.2129 33.7972 5.73797 35.7562 8.32259C36.7889 9.71786 37.3881 9.77069 42.4419 9.03716C46.4038 8.40388 49.2818 8.38965 52.5738 9.12657L57.1591 10.1026L60.0573 7.41026C63.8987 3.67556 70.0418 0.0187429 71.1761 0.65474C72.6444 1.53457 72.7441 10.5835 71.4279 18.1497C70.8362 21.8851 70.3212 26.5742 70.3535 28.6494C70.4901 32.7885 69.2481 38.4854 67.6956 40.814C66.7491 42.3027 66.772 42.4477 68.3008 43.2435C69.1848 43.6966 71.5518 44.6557 73.6455 45.287C75.6672 45.9297 77.3516 46.775 77.4202 47.2098C77.6949 48.9492 75.4881 49.0047 70.3939 47.1442C65.717 45.5884 64.5793 45.3987 63.7573 46.2731C62.9467 47.22 63.5654 47.8641 67.7165 50.7671C70.3764 52.6453 72.6761 54.5811 72.7676 55.1608C73.0881 57.1901 70.2168 56.3116 65.3979 52.921L60.4007 49.3359L55.8787 51.099C49.1202 53.6653 42.0481 53.3097 35.7657 50.0044C33.6753 48.9268 33.6753 48.9268 28.4687 52.434C22.7921 56.2391 21.3252 56.7708 21.0505 55.0315C20.9475 54.3792 22.819 52.6683 25.9529 50.5327C28.8214 48.5882 30.8256 46.7818 30.5294 46.309C30.081 45.3405 26.2518 45.8783 20.831 47.5621C17.4535 48.6221 17.0819 48.6072 16.8759 47.3026C16.6928 46.1431 17.4279 45.6541 21.3474 44.2845C23.944 43.4237 26.241 42.5364 26.4342 42.3569C26.6995 42.1659 26.14 40.0263 25.2467 37.6428C24.0833 34.4852 23.668 32.3225 23.7945 29.8503C23.9406 27.9694 23.5784 21.9346 23.0917 16.514C22.5329 11.105 22.2657 5.20357 22.4232 3.39515C22.6561 1.12886 23.1671 0.155562 24.1035 0.00587803L24.1035 0.00587243ZM25.2716 4.12868C24.636 5.7163 26.0282 18.2737 26.8206 18.147C27.1808 18.0895 28.0142 17.2875 28.5481 16.4592C29.1426 15.5468 30.6162 14.1224 31.8819 13.2514C33.1475 12.3804 34.0792 11.2655 33.9877 10.6857C33.7359 9.09135 25.7711 3.08291 25.2716 4.12868ZM69.1094 4.40298C68.62 4.10971 64.2319 7.18877 61.9969 9.40359L59.8944 11.5229L62.8505 13.8739C64.4595 15.177 66.2812 16.892 66.8622 17.765C67.9784 19.2212 68.0504 19.2097 68.6206 16.7409C68.9909 15.3443 69.2797 12.0289 69.3114 9.42324C69.3316 6.74514 69.2763 4.52491 69.1094 4.40298ZM32.9765 15.9742C18.5232 29.2069 30.8047 52.7293 50.4586 49.5134C61.6239 47.7287 68.8307 38.1806 67.186 27.2982C66.0678 19.7495 61.8124 14.7828 54.0973 12.2266C47.7213 10.1994 37.2992 12.014 32.9765 15.9742Z" fill="#88658C"/>
<path d="M36.2382 28.6786C38.3616 28.5621 38.6955 28.8059 38.9816 30.6177C39.3936 33.2267 37.6776 34.9871 35.6936 34.1154C34.1156 33.476 33.2532 31.7563 33.6383 29.9858C33.812 29.215 34.6306 28.787 36.2382 28.6786H36.2382Z" fill="#88658C"/>
<path d="M59.3309 28.9996C62.1577 30.9997 60.8456 34.8502 57.3947 34.5102C54.6985 34.2725 53.7102 31.7556 55.464 29.7663C57.1571 27.861 57.6613 27.7804 59.3309 28.9996Z" fill="#88658C"/>
<path d="M46.7674 39.7012C48.3865 39.6653 49.9564 39.7858 50.2068 39.9687C51.1251 40.6392 50.1146 42.6583 48.3824 43.381C46.3015 44.2337 44.3061 43.2896 43.9742 41.1879C43.7796 39.9558 44.1169 39.7533 46.7674 39.7012Z" fill="#88658C"/>
<path d="M1.46575 63.0443C2.25813 62.9176 4.06504 65.0065 6.60172 68.9105C8.81929 72.1968 10.8733 74.9149 11.1614 74.8688C11.4495 74.8228 11.7087 72.2551 11.7437 69.2031C11.7235 63.9309 12.2412 62.0649 13.4099 62.9183C13.7439 63.1622 14.0017 67.1332 14.0024 71.8141C14.0159 77.9791 13.7338 80.4018 13.0134 80.5169C12.4372 80.6091 10.0116 77.8761 7.54354 74.4069C5.07553 70.9377 2.87749 68.2427 2.61224 68.4337C2.43047 68.6857 2.28438 70.5665 2.32814 72.7143C2.51192 78.5548 2.22514 80.0124 1.14462 80.1851C0.568352 80.2772 0.101816 80.1289 0.0674767 79.9114C-0.0698576 79.0418 0.0230446 65.1325 0.162399 64.1443C0.309835 63.6749 0.889479 63.1364 1.46575 63.0443V63.0443Z" fill="#88658C"/>
<path d="M18.4914 63.2949C19.0677 63.2028 20.4377 64.3955 21.5653 65.9242C22.7044 67.5254 23.7371 68.9207 23.9041 69.0426C24.1545 69.2255 25.3515 67.9196 26.6238 66.1559C28.3318 63.8767 29.4419 62.9563 30.3636 63.1804C31.5127 63.4426 31.2556 64.1524 28.5896 67.8478C26.9046 70.2719 25.5043 73.0963 25.4598 74.2179C25.4269 75.412 25.3299 77.1365 25.2741 78.1856C25.2182 79.2348 24.6957 80.1356 24.1195 80.2277C22.8229 80.435 22.9521 80.7858 23.0841 76.0094C23.183 72.4271 22.936 71.7979 20.373 68.1953C18.7708 65.9994 17.5024 64.0474 17.4681 63.83C17.4338 63.6126 17.9151 63.387 18.4914 63.2949H18.4914Z" fill="#88658C"/>
<path d="M37.9218 64.2757C38.9134 66.3462 43.4031 78.4085 43.5748 79.4955C43.7007 80.2927 43.3863 80.6402 42.6316 80.5379C42.0095 80.3401 41.4138 79.841 41.3336 79.3337C41.1162 77.9567 34.5564 78.0393 33.9586 79.398C33.7391 79.8789 32.9925 80.2954 32.3213 80.2541C31.434 80.2473 31.8305 78.5493 34.3988 71.8974C36.1842 67.3026 37.7925 63.9248 37.9218 64.2756V64.2757ZM36.2239 73.1661C35.3885 75.8259 36.1364 76.8208 38.9457 76.3718C39.9542 76.2106 40.1131 75.8137 39.5469 74.5667C39.1935 73.7316 38.7714 72.4617 38.6569 71.7369C38.3479 69.7802 37.1314 70.4947 36.2239 73.1661Z" fill="#88658C"/>
<path d="M50.8549 63.3972C55.3978 63.6369 57.064 65.3025 53.3182 65.9012C51.3013 66.2236 51.3127 66.2961 51.4063 72.9683C51.4218 77.2753 51.174 79.9155 50.5601 80.2365C50.0181 80.5461 49.5253 80.6991 49.3584 80.5772C49.1914 80.4553 49.0676 77.8002 49.1026 74.7483C49.2924 67.0648 49.0487 65.9892 47.3118 65.7468C46.4851 65.656 45.7223 65.0349 45.6308 64.4551C45.4362 63.2231 45.5803 63.2001 50.8549 63.3972V63.3972Z" fill="#88658C"/>
<path d="M60.8542 63.5821C65.7 63.4019 66.1666 63.5503 66.3955 64.9997C66.5099 65.7244 66.04 66.0224 64.7582 65.8558C62.7446 65.7319 62.7446 65.7319 62.7231 74.9488C62.7305 78.737 62.3912 80.7974 61.7429 80.901C61.2386 80.9816 60.7149 80.4709 60.6004 79.7462C60.3944 78.4417 60.3877 71.3841 60.5701 67.8627C60.6637 66.5846 60.284 66.0509 58.7632 65.7739C57.6975 65.5727 56.7907 64.9746 56.722 64.5398C56.6305 63.96 57.8436 63.6918 60.8542 63.5821V63.5821Z" fill="#88658C"/>
<path d="M69.4014 63.9248L73.7201 63.6803C79.1536 63.4805 80.2193 63.6816 80.4367 65.0586C80.5855 66.0008 79.8766 66.1884 76.4944 66.2832C72.1642 66.4552 71.1639 67.1353 71.5873 69.8167C71.7246 70.6864 72.6692 71.0556 75.1035 71.0379C77.6099 71.0088 78.4709 71.317 78.6197 72.2591C78.78 73.2738 78.2986 73.4993 75.2274 73.693C71.8681 73.9328 71.7354 74.0283 71.6614 75.8977C71.5954 78.2859 71.5954 78.2859 76.0925 78.2357C79.6302 78.1904 81.0756 78.9253 80.1062 80.269C79.2579 81.4449 69.6794 81.1184 69.4849 79.8864C69.3933 79.3066 69.3859 75.5184 69.3933 71.3563L69.4014 63.9248Z" fill="#88658C"/>
<path d="M83.7193 63.8652L86.969 63.8659C91.1665 63.7893 94.0687 65.3316 94.7459 67.7496C95.366 69.8052 93.9886 72.7746 92.2598 73.0509C91.0352 73.2467 91.0352 73.2467 93.4507 77.3187C95.3572 80.5061 95.3916 80.7235 94.167 80.9193C93.2305 81.069 92.2665 80.1085 90.9901 77.6377C89.239 74.4997 87.3796 73.0137 86.6034 74.178C86.4216 74.4299 86.3018 76.0094 86.3375 77.6384C86.4088 80.8962 84.6356 82.2942 84.1664 79.3228C83.5255 75.2644 84.0304 71.9144 85.2698 71.3448C86.1719 70.9777 86.3799 70.4243 85.9659 69.6732C85.5747 69.067 84.9628 67.5301 84.5292 66.1877L83.7193 63.8652ZM88.6769 69.537C89.8389 71.2831 90.2334 71.443 91.9198 70.4304C93.6062 69.4178 92.7963 67.0953 90.5814 66.632C86.9898 65.8687 86.6377 66.4451 88.6769 69.537Z" fill="#88658C"/>
</g>
<defs>
<clipPath id="clip0_149_47">
<rect width="95" height="81" fill="white"/>
</clipPath>
</defs>
</svg>
